<svg xmlns="http://www.w3.org/2000/svg" width="1080" height="1080" viewBox="0 0 1080 1080" version="1.1"><path d="M 524 168.591 C 448.116 178.600, 341.555 221.927, 310.087 255.566 C 302.742 263.418, 293.105 282.035, 290.362 293.674 C 288.330 302.291, 286.882 303.820, 275.880 308.969 C 264.143 314.461, 250.786 316.046, 239.250 313.316 C 235.565 312.443, 236.462 316.281, 240.875 320.268 C 249.339 327.914, 262.039 333, 272.669 333 C 279.082 333, 278.875 332.585, 277.898 343.500 C 277.456 348.450, 276.673 359.504, 276.160 368.064 C 274.334 398.497, 260.612 419.886, 238 427.546 C 221.969 432.977, 244.039 439.841, 263.932 435.612 C 272.995 433.685, 271.640 428.785, 272.892 468 C 273.998 502.678, 276.039 525.351, 280.362 551 C 281.707 558.975, 283.787 571.800, 284.985 579.500 C 289.249 606.904, 304.201 671.273, 311.685 694.448 C 323.063 729.679, 338.944 756.081, 365.297 783.579 C 376.873 795.658, 376.873 795.658, 364.857 807.579 C 340.613 831.630, 333.281 847.636, 318.969 907.743 C 311.213 940.318, 311.684 941.600, 335.691 953.181 C 391.997 980.346, 487.438 989.734, 587.615 977.963 C 675.609 967.623, 799.122 935.277, 810.241 919.662 C 819.787 906.255, 787.724 838.409, 745.697 783.088 C 730.647 763.278, 731.608 765.270, 733.018 756.801 C 734.554 747.587, 734.918 746.906, 742.657 738.822 C 755.859 725.029, 757.886 692, 745.530 692 C 742.015 692, 742.038 692.715, 745.784 700.017 C 752.237 712.594, 749.420 726.034, 738.250 735.971 C 735.638 738.295, 732.561 741.029, 731.414 742.045 C 730.142 743.172, 729.278 745.228, 729.200 747.311 C 729.129 749.191, 728.616 752.702, 728.060 755.114 C 725.902 764.476, 726.250 765.426, 737.186 780 C 781.831 839.496, 814.995 907.096, 804.626 917.465 C 789.823 932.267, 661.407 965.285, 592.500 972.005 C 587 972.542, 574.850 973.897, 565.500 975.016 C 526.406 979.697, 434.406 977.828, 432.289 972.310 C 430.075 966.542, 449.203 880.890, 458.114 856.670 C 464.438 839.481, 464.439 839.474, 463.020 836.048 C 458.748 825.735, 446 829.944, 446 841.668 C 446 844.072, 444.909 848.725, 443.575 852.007 C 436.402 869.660, 422.472 927.851, 416.920 963.358 C 415.691 971.217, 415.691 971.217, 410.595 970.552 C 399.203 969.066, 392 966.925, 392 965.026 C 392 951.216, 410.978 856.813, 417.192 839.713 C 420.700 830.060, 420.481 829.727, 394.010 804.487 C 332.242 745.594, 321.020 723.847, 297.523 617.500 C 290.981 587.895, 281.216 525.463, 282.703 522.754 C 282.929 522.344, 286.455 520.464, 290.539 518.577 C 294.988 516.522, 300.130 513.099, 303.365 510.039 C 308.766 504.931, 308.766 504.931, 309.461 507.699 C 309.843 509.221, 311.978 514.749, 314.206 519.983 C 323.128 540.945, 323.960 553.252, 317.339 566.318 C 315.196 570.546, 315.035 571.464, 316.228 572.656 C 320 576.429, 337.595 562.341, 342.649 551.500 C 344.206 548.160, 344.984 547.228, 344.990 548.692 C 344.996 549.897, 346.616 556.197, 348.592 562.692 C 350.568 569.186, 353.254 578.173, 354.562 582.661 C 364.827 617.895, 395.228 660.971, 417.796 672.261 C 430.841 678.788, 438.326 678.342, 455.786 670.002 C 475.478 660.595, 482.031 665.183, 487.954 692.520 C 494.648 723.416, 493.913 724.778, 460.066 744.212 C 436.259 757.882, 424.973 771.771, 419.431 794.220 C 417.772 800.939, 417.772 800.939, 413.636 798.110 C 401.989 790.144, 402.769 791.934, 417.734 807.520 C 432.900 823.314, 432.900 823.314, 430.450 827.495 C 424.902 836.963, 428.853 833.065, 443.810 814.317 C 495.844 749.095, 517.223 707.566, 531.465 644.042 C 550.247 560.265, 531.622 432.445, 490.223 361 C 458.891 306.927, 415.020 260.248, 383.500 247.444 C 352.783 234.966, 311.632 254.797, 304.932 285.305 C 303.735 290.754, 299.833 296, 296.977 296 C 294.502 296, 304.795 270.772, 310.367 263.182 C 316.220 255.207, 325.273 247.503, 336.798 240.689 C 424.054 189.093, 537.095 160.423, 589.229 176.666 C 596.524 178.938, 597.099 178.981, 599.479 177.422 C 602.796 175.249, 603.101 175.531, 594.240 172.580 C 576.995 166.837, 549.245 165.261, 524 168.591 M 629.980 194.524 C 629.284 195.362, 628.892 196.180, 629.107 196.342 C 645.083 208.289, 656.281 217.003, 659.075 219.662 C 662.650 223.064, 662.650 223.064, 663.803 220.533 C 665.340 217.159, 659.106 211.309, 639.572 197.793 C 631.820 192.430, 631.740 192.403, 629.980 194.524 M 694.250 256.708 C 691.799 257.607, 693.098 260.956, 700.250 272.176 C 704.237 278.431, 710.200 288.595, 713.500 294.762 C 720.137 307.165, 720.057 307.088, 722.503 303.356 C 724.041 301.008, 724.063 300.615, 722.703 299.854 C 721.860 299.382, 718.822 294.639, 715.951 289.315 C 705.423 269.784, 696.236 255.980, 694.250 256.708 M 357.757 282.980 C 321.410 289.509, 306.504 307.819, 285.331 371.941 C 274.015 406.211, 266.605 418.141, 249.400 429.786 C 247.796 430.871, 248.703 431.001, 255.215 430.616 C 271.904 429.629, 283.798 419.702, 289.501 402 C 293.206 390.502, 305.532 363.145, 306.527 364.214 C 306.674 364.371, 305.932 367.875, 304.878 372 C 295.468 408.844, 299.922 451.182, 313.569 454.607 C 320.170 456.264, 321.227 451.321, 317.817 434.726 C 308.941 391.536, 319.256 337.828, 341.049 313.750 C 349.078 304.880, 350.431 305.140, 343.656 314.250 C 323.417 341.467, 317.184 373.217, 326.625 401 C 327.172 402.610, 328.366 401.392, 338.180 389.208 C 344.817 380.969, 344.883 381.454, 339.049 395.587 C 328.319 421.584, 326.702 452.033, 335.715 458.367 C 348.291 467.206, 358.291 458.989, 373.905 426.984 C 378.865 416.818, 382.653 409.850, 382.323 411.500 C 381.993 413.150, 381.522 414.857, 381.276 415.293 C 381.030 415.729, 380.666 418.429, 380.467 421.293 C 380.033 427.548, 377.332 454.303, 376.361 461.974 C 375.668 467.447, 375.668 467.447, 378.584 465.583 C 398.101 453.105, 406.226 427.812, 407.681 375 C 408.394 349.149, 408.407 349.133, 412.898 368.500 C 418.642 393.265, 453.864 445.538, 460.401 438.998 C 463.840 435.557, 461.251 408.066, 455.093 382.628 C 454.577 380.498, 454.493 379.148, 454.907 379.628 C 457.480 382.616, 466.608 398.236, 471.488 408 C 481.446 427.927, 499.425 454.030, 499.803 449.110 C 500.622 438.475, 493.941 414.106, 486.367 400.095 C 469.641 369.152, 415.149 300.832, 405.206 298.337 C 402.013 297.535, 401.904 297.687, 391.812 317 C 382.579 334.670, 379.268 339.803, 368.746 352.763 C 364.615 357.851, 360.531 363.023, 359.670 364.257 C 358.145 366.443, 358.104 366.448, 358.052 364.438 C 357.786 353.964, 373.893 315.442, 386.108 297.340 C 391.932 288.709, 391.882 287.759, 385.431 284.536 C 380.995 282.319, 366.099 281.482, 357.757 282.980 M 302.607 301.009 C 288.101 311.387, 266.263 320.975, 257.040 321.015 C 254.386 321.027, 253.876 321.273, 255 322 C 262.466 326.825, 303.101 308.505, 309.232 297.550 C 310.421 295.425, 310.386 295.443, 302.607 301.009 M 285.992 333.250 C 285.988 333.387, 285.315 338.865, 284.497 345.422 C 283.679 351.979, 283.168 357.501, 283.361 357.694 C 283.790 358.123, 292 335.737, 292 334.139 C 292 333.230, 286.021 332.345, 285.992 333.250 M 735.209 339.037 C 734.123 340.775, 734.516 342.934, 737.894 353.787 C 740.071 360.779, 743.081 371.225, 744.584 377 C 747.153 386.871, 749.109 391, 751.216 391 C 753.240 391, 747.843 367.234, 741.393 347.750 C 737.630 336.381, 737.224 335.810, 735.209 339.037 M 754.667 430.667 C 754.300 431.033, 753.974 435.871, 753.941 441.417 C 753.875 452.882, 752.691 472.754, 751.001 490.776 C 749.601 505.716, 749.935 507.185, 752.892 499.075 C 759.879 479.914, 761.329 424.004, 754.667 430.667 M 365 449.559 C 365 450.416, 365.450 450.840, 366 450.500 C 366.550 450.160, 367 449.459, 367 448.941 C 367 448.423, 366.550 448, 366 448 C 365.450 448, 365 448.702, 365 449.559 M 525.740 501.622 C 525.444 502.105, 524.682 504.441, 524.046 506.813 C 523.410 509.184, 522.609 511.855, 522.267 512.747 C 521.873 513.774, 522.980 513.304, 525.286 511.463 C 528.261 509.089, 528.818 508.095, 528.329 506.029 C 527.490 502.487, 526.373 500.585, 525.740 501.622 M 353.401 511.105 C 354.318 516.844, 356.923 521.731, 358.086 519.896 C 359.516 517.636, 359.145 515.149, 356.750 510.956 C 353.849 505.875, 352.574 505.932, 353.401 511.105 M 343.101 512 C 342.985 515.062, 349.285 526.049, 350.475 524.859 C 350.747 524.586, 350.077 522.612, 348.985 520.470 C 347.893 518.329, 347 515.772, 347 514.789 C 347 513.805, 346.363 513, 345.583 513 C 344.804 513, 343.940 512.438, 343.662 511.750 C 343.319 510.900, 343.140 510.980, 343.101 512 M 499.964 523.153 C 497.509 524.901, 491.416 529.407, 486.424 533.166 C 481.433 536.925, 476.847 540, 476.233 540 C 474.183 540, 473.903 541.913, 475.502 545.003 C 476.506 546.945, 477.527 547.794, 478.293 547.323 C 489.936 540.160, 507.178 525.205, 506.790 522.604 C 506.340 519.585, 504.802 519.709, 499.964 523.153 M 347.681 535 C 346.798 537.109, 345.051 545.384, 345.412 545.745 C 346.096 546.430, 349.119 536.889, 348.731 535.266 C 348.381 533.801, 348.203 533.756, 347.681 535 M 355.500 540.229 C 342.377 560.605, 377.521 636.274, 412.349 662.635 C 433.654 678.760, 455.538 671.749, 496.847 635.564 C 502.538 630.579, 509.513 624.539, 512.347 622.143 C 519.810 615.832, 518.157 613.497, 503.447 609.569 C 487.395 605.282, 482.162 596.285, 475.476 561.477 C 472.935 548.249, 470.830 543.221, 467.510 542.452 C 466.405 542.196, 453.125 541.320, 438 540.505 C 400.078 538.462, 384.067 537.220, 373.261 535.484 C 359.550 533.282, 360.062 533.145, 355.500 540.229 M 327.667 558.667 C 327.300 559.033, 327 559.798, 327 560.367 C 327 560.993, 327.466 560.934, 328.183 560.217 C 328.834 559.566, 329.134 558.801, 328.850 558.517 C 328.566 558.232, 328.033 558.300, 327.667 558.667 M 530.102 583.391 C 528.867 584.706, 524.176 588.389, 519.678 591.574 C 499.842 605.623, 500.288 605.139, 505.665 606.789 C 510.038 608.131, 509.130 608.594, 522.915 598 C 533.918 589.545, 533.976 589.478, 533.988 585.250 C 534.002 580.384, 533.260 580.029, 530.102 583.391 M 524.500 602.047 C 516.143 608.175, 515.107 609.755, 518.599 611.047 C 522.686 612.559, 533.836 601.985, 532.818 597.563 C 532.604 596.633, 529.881 598.101, 524.500 602.047 M 740.528 605.250 C 740.166 608.138, 738.688 615.327, 737.244 621.226 C 735.800 627.125, 734.817 632.148, 735.059 632.388 C 736.088 633.405, 741 631.647, 741 630.262 C 741 629.434, 742.354 622.700, 744.009 615.298 C 747.216 600.956, 747.186 600, 743.535 600 C 741.454 600, 741.113 600.595, 740.528 605.250 M 374.242 805.861 C 348.288 828.199, 340.180 844.715, 324.512 907.169 C 318.563 930.883, 318.136 934.663, 320.998 938.284 C 324.771 943.057, 361.236 959.265, 373.285 961.526 C 377.439 962.305, 376.663 964.728, 380.022 940.500 C 383.768 913.482, 391.896 874.313, 398.664 850.663 C 400.817 843.138, 401.092 840.688, 400.514 834.153 C 399.892 827.132, 400.027 826.236, 402.102 823.597 C 404.370 820.715, 404.370 820.715, 401.435 818.234 C 399.821 816.870, 394.812 812.210, 390.304 807.877 C 380.546 798.499, 382.509 798.745, 374.242 805.861 M 405.667 828.667 C 405.300 829.033, 405 831.772, 405 834.753 C 405 837.777, 403.243 847.098, 401.025 855.837 C 392.009 891.365, 385.701 924.181, 381.320 958.348 C 380.656 963.526, 381.562 964.963, 385.500 964.976 C 387.336 964.982, 387.818 963.032, 391.374 941.241 C 397.535 903.475, 402.846 877.848, 410.489 849 C 413.069 839.259, 413.045 836.017, 410.354 830.750 C 409.006 828.112, 407.078 827.255, 405.667 828.667 M 451.062 840.196 C 440.239 870.713, 428.941 915.339, 423.131 950.526 C 419.774 970.853, 419.772 970.963, 422.760 972.099 C 426.738 973.611, 427.694 972.639, 428.429 966.329 C 430.722 946.655, 444.935 885.588, 453.708 857.715 C 457.448 845.831, 458.175 842.397, 457.411 840.215 C 455.964 836.086, 452.523 836.076, 451.062 840.196" stroke="none" fill="#45363f" fill-rule="evenodd"/><path d="M 0 540.001 C 0 1080.002, 0 1080.002, 540.250 1079.751 C 1080.500 1079.500, 1080.500 1079.500, 1080.751 539.750 C 1081.002 0, 1081.002 -0, 540.501 -0 C 0 0, 0 0, 0 540.001 M 0.496 540.500 C 0.496 837.500, 0.610 958.851, 0.750 810.168 C 0.890 661.485, 0.890 418.485, 0.750 270.168 C 0.610 121.851, 0.496 243.500, 0.496 540.500 M 524 168.591 C 448.116 178.600, 341.555 221.927, 310.087 255.566 C 302.742 263.418, 293.105 282.035, 290.362 293.674 C 288.330 302.291, 286.882 303.820, 275.880 308.969 C 264.143 314.461, 250.786 316.046, 239.250 313.316 C 235.565 312.443, 236.462 316.281, 240.875 320.268 C 249.339 327.914, 262.039 333, 272.669 333 C 279.082 333, 278.875 332.585, 277.898 343.500 C 277.456 348.450, 276.673 359.504, 276.160 368.064 C 274.334 398.497, 260.612 419.886, 238 427.546 C 221.969 432.977, 244.039 439.841, 263.932 435.612 C 272.995 433.685, 271.640 428.785, 272.892 468 C 273.998 502.678, 276.039 525.351, 280.362 551 C 281.707 558.975, 283.787 571.800, 284.985 579.500 C 289.249 606.904, 304.201 671.273, 311.685 694.448 C 323.063 729.679, 338.944 756.081, 365.297 783.579 C 376.873 795.658, 376.873 795.658, 364.857 807.579 C 340.613 831.630, 333.281 847.636, 318.969 907.743 C 311.213 940.318, 311.684 941.600, 335.691 953.181 C 391.997 980.346, 487.438 989.734, 587.615 977.963 C 675.609 967.623, 799.122 935.277, 810.241 919.662 C 819.787 906.255, 787.724 838.409, 745.697 783.088 C 730.647 763.278, 731.608 765.270, 733.018 756.801 C 734.554 747.587, 734.918 746.906, 742.657 738.822 C 755.859 725.029, 757.886 692, 745.530 692 C 742.015 692, 742.038 692.715, 745.784 700.017 C 752.237 712.594, 749.420 726.034, 738.250 735.971 C 735.638 738.295, 732.561 741.029, 731.414 742.045 C 730.142 743.172, 729.278 745.228, 729.200 747.311 C 729.129 749.191, 728.616 752.702, 728.060 755.114 C 725.902 764.476, 726.250 765.426, 737.186 780 C 781.831 839.496, 814.995 907.096, 804.626 917.465 C 789.823 932.267, 661.407 965.285, 592.500 972.005 C 587 972.542, 574.850 973.897, 565.500 975.016 C 526.406 979.697, 434.406 977.828, 432.289 972.310 C 430.075 966.542, 449.203 880.890, 458.114 856.670 C 464.438 839.481, 464.439 839.474, 463.020 836.048 C 458.748 825.735, 446 829.944, 446 841.668 C 446 844.072, 444.909 848.725, 443.575 852.007 C 436.402 869.660, 422.472 927.851, 416.920 963.358 C 415.691 971.217, 415.691 971.217, 410.595 970.552 C 399.203 969.066, 392 966.925, 392 965.026 C 392 951.216, 410.978 856.813, 417.192 839.713 C 420.700 830.060, 420.481 829.727, 394.010 804.487 C 332.242 745.594, 321.020 723.847, 297.523 617.500 C 290.981 587.895, 281.216 525.463, 282.703 522.754 C 282.929 522.344, 286.455 520.464, 290.539 518.577 C 294.988 516.522, 300.130 513.099, 303.365 510.039 C 308.766 504.931, 308.766 504.931, 309.461 507.699 C 309.843 509.221, 311.978 514.749, 314.206 519.983 C 323.128 540.945, 323.960 553.252, 317.339 566.318 C 315.196 570.546, 315.035 571.464, 316.228 572.656 C 320 576.429, 337.595 562.341, 342.649 551.500 C 344.206 548.160, 344.984 547.228, 344.990 548.692 C 344.996 549.897, 346.616 556.197, 348.592 562.692 C 350.568 569.186, 353.254 578.173, 354.562 582.661 C 364.827 617.895, 395.228 660.971, 417.796 672.261 C 430.841 678.788, 438.326 678.342, 455.786 670.002 C 475.478 660.595, 482.031 665.183, 487.954 692.520 C 494.648 723.416, 493.913 724.778, 460.066 744.212 C 436.259 757.882, 424.973 771.771, 419.431 794.220 C 417.772 800.939, 417.772 800.939, 413.636 798.110 C 401.989 790.144, 402.769 791.934, 417.734 807.520 C 432.900 823.314, 432.900 823.314, 430.450 827.495 C 424.902 836.963, 428.853 833.065, 443.810 814.317 C 495.844 749.095, 517.223 707.566, 531.465 644.042 C 550.247 560.265, 531.622 432.445, 490.223 361 C 458.891 306.927, 415.020 260.248, 383.500 247.444 C 352.783 234.966, 311.632 254.797, 304.932 285.305 C 303.735 290.754, 299.833 296, 296.977 296 C 294.502 296, 304.795 270.772, 310.367 263.182 C 316.220 255.207, 325.273 247.503, 336.798 240.689 C 424.054 189.093, 537.095 160.423, 589.229 176.666 C 596.524 178.938, 597.099 178.981, 599.479 177.422 C 602.796 175.249, 603.101 175.531, 594.240 172.580 C 576.995 166.837, 549.245 165.261, 524 168.591 M 629.980 194.524 C 629.284 195.362, 628.892 196.180, 629.107 196.342 C 645.083 208.289, 656.281 217.003, 659.075 219.662 C 662.650 223.064, 662.650 223.064, 663.803 220.533 C 665.340 217.159, 659.106 211.309, 639.572 197.793 C 631.820 192.430, 631.740 192.403, 629.980 194.524 M 694.250 256.708 C 691.799 257.607, 693.098 260.956, 700.250 272.176 C 704.237 278.431, 710.200 288.595, 713.500 294.762 C 720.137 307.165, 720.057 307.088, 722.503 303.356 C 724.041 301.008, 724.063 300.615, 722.703 299.854 C 721.860 299.382, 718.822 294.639, 715.951 289.315 C 705.423 269.784, 696.236 255.980, 694.250 256.708 M 357.757 282.980 C 321.410 289.509, 306.504 307.819, 285.331 371.941 C 274.015 406.211, 266.605 418.141, 249.400 429.786 C 247.796 430.871, 248.703 431.001, 255.215 430.616 C 271.904 429.629, 283.798 419.702, 289.501 402 C 293.206 390.502, 305.532 363.145, 306.527 364.214 C 306.674 364.371, 305.932 367.875, 304.878 372 C 295.468 408.844, 299.922 451.182, 313.569 454.607 C 320.170 456.264, 321.227 451.321, 317.817 434.726 C 308.941 391.536, 319.256 337.828, 341.049 313.750 C 349.078 304.880, 350.431 305.140, 343.656 314.250 C 323.417 341.467, 317.184 373.217, 326.625 401 C 327.172 402.610, 328.366 401.392, 338.180 389.208 C 344.817 380.969, 344.883 381.454, 339.049 395.587 C 328.319 421.584, 326.702 452.033, 335.715 458.367 C 348.291 467.206, 358.291 458.989, 373.905 426.984 C 378.865 416.818, 382.653 409.850, 382.323 411.500 C 381.993 413.150, 381.522 414.857, 381.276 415.293 C 381.030 415.729, 380.666 418.429, 380.467 421.293 C 380.033 427.548, 377.332 454.303, 376.361 461.974 C 375.668 467.447, 375.668 467.447, 378.584 465.583 C 398.101 453.105, 406.226 427.812, 407.681 375 C 408.394 349.149, 408.407 349.133, 412.898 368.500 C 418.642 393.265, 453.864 445.538, 460.401 438.998 C 463.840 435.557, 461.251 408.066, 455.093 382.628 C 454.577 380.498, 454.493 379.148, 454.907 379.628 C 457.480 382.616, 466.608 398.236, 471.488 408 C 481.446 427.927, 499.425 454.030, 499.803 449.110 C 500.622 438.475, 493.941 414.106, 486.367 400.095 C 469.641 369.152, 415.149 300.832, 405.206 298.337 C 402.013 297.535, 401.904 297.687, 391.812 317 C 382.579 334.670, 379.268 339.803, 368.746 352.763 C 364.615 357.851, 360.531 363.023, 359.670 364.257 C 358.145 366.443, 358.104 366.448, 358.052 364.438 C 357.786 353.964, 373.893 315.442, 386.108 297.340 C 391.932 288.709, 391.882 287.759, 385.431 284.536 C 380.995 282.319, 366.099 281.482, 357.757 282.980 M 302.607 301.009 C 288.101 311.387, 266.263 320.975, 257.040 321.015 C 254.386 321.027, 253.876 321.273, 255 322 C 262.466 326.825, 303.101 308.505, 309.232 297.550 C 310.421 295.425, 310.386 295.443, 302.607 301.009 M 285.992 333.250 C 285.988 333.387, 285.315 338.865, 284.497 345.422 C 283.679 351.979, 283.168 357.501, 283.361 357.694 C 283.790 358.123, 292 335.737, 292 334.139 C 292 333.230, 286.021 332.345, 285.992 333.250 M 735.209 339.037 C 734.123 340.775, 734.516 342.934, 737.894 353.787 C 740.071 360.779, 743.081 371.225, 744.584 377 C 747.153 386.871, 749.109 391, 751.216 391 C 753.240 391, 747.843 367.234, 741.393 347.750 C 737.630 336.381, 737.224 335.810, 735.209 339.037 M 754.667 430.667 C 754.300 431.033, 753.974 435.871, 753.941 441.417 C 753.875 452.882, 752.691 472.754, 751.001 490.776 C 749.601 505.716, 749.935 507.185, 752.892 499.075 C 759.879 479.914, 761.329 424.004, 754.667 430.667 M 365 449.559 C 365 450.416, 365.450 450.840, 366 450.500 C 366.550 450.160, 367 449.459, 367 448.941 C 367 448.423, 366.550 448, 366 448 C 365.450 448, 365 448.702, 365 449.559 M 525.740 501.622 C 525.444 502.105, 524.682 504.441, 524.046 506.813 C 523.410 509.184, 522.609 511.855, 522.267 512.747 C 521.873 513.774, 522.980 513.304, 525.286 511.463 C 528.261 509.089, 528.818 508.095, 528.329 506.029 C 527.490 502.487, 526.373 500.585, 525.740 501.622 M 353.401 511.105 C 354.318 516.844, 356.923 521.731, 358.086 519.896 C 359.516 517.636, 359.145 515.149, 356.750 510.956 C 353.849 505.875, 352.574 505.932, 353.401 511.105 M 343.101 512 C 342.985 515.062, 349.285 526.049, 350.475 524.859 C 350.747 524.586, 350.077 522.612, 348.985 520.470 C 347.893 518.329, 347 515.772, 347 514.789 C 347 513.805, 346.363 513, 345.583 513 C 344.804 513, 343.940 512.438, 343.662 511.750 C 343.319 510.900, 343.140 510.980, 343.101 512 M 499.964 523.153 C 497.509 524.901, 491.416 529.407, 486.424 533.166 C 481.433 536.925, 476.847 540, 476.233 540 C 474.183 540, 473.903 541.913, 475.502 545.003 C 476.506 546.945, 477.527 547.794, 478.293 547.323 C 489.936 540.160, 507.178 525.205, 506.790 522.604 C 506.340 519.585, 504.802 519.709, 499.964 523.153 M 347.681 535 C 346.798 537.109, 345.051 545.384, 345.412 545.745 C 346.096 546.430, 349.119 536.889, 348.731 535.266 C 348.381 533.801, 348.203 533.756, 347.681 535 M 355.500 540.229 C 342.377 560.605, 377.521 636.274, 412.349 662.635 C 433.654 678.760, 455.538 671.749, 496.847 635.564 C 502.538 630.579, 509.513 624.539, 512.347 622.143 C 519.810 615.832, 518.157 613.497, 503.447 609.569 C 487.395 605.282, 482.162 596.285, 475.476 561.477 C 472.935 548.249, 470.830 543.221, 467.510 542.452 C 466.405 542.196, 453.125 541.320, 438 540.505 C 400.078 538.462, 384.067 537.220, 373.261 535.484 C 359.550 533.282, 360.062 533.145, 355.500 540.229 M 327.667 558.667 C 327.300 559.033, 327 559.798, 327 560.367 C 327 560.993, 327.466 560.934, 328.183 560.217 C 328.834 559.566, 329.134 558.801, 328.850 558.517 C 328.566 558.232, 328.033 558.300, 327.667 558.667 M 530.102 583.391 C 528.867 584.706, 524.176 588.389, 519.678 591.574 C 499.842 605.623, 500.288 605.139, 505.665 606.789 C 510.038 608.131, 509.130 608.594, 522.915 598 C 533.918 589.545, 533.976 589.478, 533.988 585.250 C 534.002 580.384, 533.260 580.029, 530.102 583.391 M 524.500 602.047 C 516.143 608.175, 515.107 609.755, 518.599 611.047 C 522.686 612.559, 533.836 601.985, 532.818 597.563 C 532.604 596.633, 529.881 598.101, 524.500 602.047 M 740.528 605.250 C 740.166 608.138, 738.688 615.327, 737.244 621.226 C 735.800 627.125, 734.817 632.148, 735.059 632.388 C 736.088 633.405, 741 631.647, 741 630.262 C 741 629.434, 742.354 622.700, 744.009 615.298 C 747.216 600.956, 747.186 600, 743.535 600 C 741.454 600, 741.113 600.595, 740.528 605.250 M 374.242 805.861 C 348.288 828.199, 340.180 844.715, 324.512 907.169 C 318.563 930.883, 318.136 934.663, 320.998 938.284 C 324.771 943.057, 361.236 959.265, 373.285 961.526 C 377.439 962.305, 376.663 964.728, 380.022 940.500 C 383.768 913.482, 391.896 874.313, 398.664 850.663 C 400.817 843.138, 401.092 840.688, 400.514 834.153 C 399.892 827.132, 400.027 826.236, 402.102 823.597 C 404.370 820.715, 404.370 820.715, 401.435 818.234 C 399.821 816.870, 394.812 812.210, 390.304 807.877 C 380.546 798.499, 382.509 798.745, 374.242 805.861 M 405.667 828.667 C 405.300 829.033, 405 831.772, 405 834.753 C 405 837.777, 403.243 847.098, 401.025 855.837 C 392.009 891.365, 385.701 924.181, 381.320 958.348 C 380.656 963.526, 381.562 964.963, 385.500 964.976 C 387.336 964.982, 387.818 963.032, 391.374 941.241 C 397.535 903.475, 402.846 877.848, 410.489 849 C 413.069 839.259, 413.045 836.017, 410.354 830.750 C 409.006 828.112, 407.078 827.255, 405.667 828.667 M 451.062 840.196 C 440.239 870.713, 428.941 915.339, 423.131 950.526 C 419.774 970.853, 419.772 970.963, 422.760 972.099 C 426.738 973.611, 427.694 972.639, 428.429 966.329 C 430.722 946.655, 444.935 885.588, 453.708 857.715 C 457.448 845.831, 458.175 842.397, 457.411 840.215 C 455.964 836.086, 452.523 836.076, 451.062 840.196" stroke="none" fill="#f5e9de" fill-rule="evenodd"/></svg>